<?xml version="1.0" standalone="no"?>
<!DOCTYPE svg PUBLIC "-//W3C//DTD SVG 20010904//EN"
 "http://www.w3.org/TR/2001/REC-SVG-20010904/DTD/svg10.dtd">
<svg version="1.0" xmlns="http://www.w3.org/2000/svg"
 width="512.000000pt" height="512.000000pt" viewBox="0 0 512.000000 512.000000"
 preserveAspectRatio="xMidYMid meet">
  <metadata>
Created by potrace 1.14, written by Peter Selinger 2001-2017
</metadata>
  <g transform="translate(0.000000,512.000000) scale(0.100000,-0.100000)"
fill="#000000" stroke="none">
    <path d="M1805 4623 c1 -71 7 -148 14 -173 41 -156 123 -275 244 -359 35 -24
201 -113 217 -116 28 -6 305 -155 327 -175 64 -62 92 -116 100 -196 l6 -54
149 0 150 0 -5 63 c-17 196 -112 356 -275 463 -29 19 -58 35 -65 37 -7 1 -14
4 -17 7 -3 3 -97 52 -210 108 -113 57 -221 117 -241 135 -20 18 -49 57 -65 87
-25 50 -28 66 -30 170 -2 63 -3 118 -3 123 -1 4 -68 7 -150 7 l-148 0 2 -127z"/>
    <path d="M1317 3243 c-1 -1 -14 -3 -27 -5 -113 -17 -220 -129 -237 -248 -8
-58 -8 -1260 0 -1345 5 -54 21 -121 39 -164 6 -14 12 -29 12 -32 3 -18 51
-109 58 -109 4 0 8 -5 8 -11 0 -20 97 -131 156 -179 105 -85 252 -149 379
-164 45 -6 1336 -8 1375 -2 119 16 174 32 276 82 176 87 329 273 378 459 25
97 29 134 30 247 1 60 3 109 6 110 3 1 32 2 65 3 33 1 76 5 95 9 19 3 49 8 65
11 59 11 163 56 225 98 220 149 338 424 291 677 -16 83 -61 197 -106 264 -38
58 -170 186 -191 186 -8 0 -14 5 -14 10 0 6 -7 10 -15 10 -8 0 -15 3 -15 8 0
9 -98 47 -180 68 -60 16 -173 18 -1368 18 -717 1 -1304 0 -1305 -1z m2139
-302 c13 -1 17 -1213 4 -1283 -11 -57 -45 -148 -67 -178 -40 -53 -114 -118
-172 -149 -60 -32 -70 -35 -141 -47 -65 -12 -1281 -10 -1352 2 -139 23 -276
121 -331 236 -52 109 -50 79 -51 763 -2 352 -1 645 1 650 2 7 352 10 1051 9
576 -1 1052 -2 1058 -3z m474 -6 c98 -22 199 -100 248 -192 30 -58 52 -142 47
-185 -14 -118 -53 -203 -124 -271 -28 -26 -54 -48 -58 -48 -4 -1 -24 -10 -44
-20 -43 -22 -81 -29 -166 -34 -42 -2 -63 1 -64 9 -3 23 -5 741 -3 747 4 8 122
4 164 -6z"/>
    <path d="M489 672 l-46 -3 0 -152 0 -152 2081 1 c1145 1 2081 2 2081 4 0 1 8
3 18 5 9 2 15 -1 11 -6 -3 -5 2 -9 11 -9 9 0 13 4 10 10 -3 6 4 10 17 11 13 0
17 3 10 6 -6 2 -12 11 -12 19 0 9 5 12 13 8 10 -6 10 -4 0 7 -7 7 -13 17 -13
22 0 4 6 5 13 1 10 -6 10 -4 0 7 -17 17 -17 32 0 23 10 -6 10 -4 0 7 -17 17
-17 32 -1 23 10 -6 10 -4 2 7 -15 18 -14 80 0 72 6 -4 5 1 -3 10 -11 14 -12
23 -3 43 10 20 9 26 -3 30 -15 6 -4100 12 -4186 6z"/>
  </g>
</svg>